<?xml version="1.0" encoding="UTF-8"?><svg id="Layer_1" xmlns="http://www.w3.org/2000/svg" width="1366" height="768" viewBox="0 0 1366 768"><defs><style>.cls-1{stroke:#ededbb;}.cls-1,.cls-2,.cls-3{fill:none;stroke-miterlimit:10;stroke-width:4px;}.cls-2{stroke:#b8dce8;}.cls-3{stroke:#e1b6d2;}</style></defs><path class="cls-1" d="M-131.11,60.63C46.99,3.7,206.63-11.91,303.51,59.59c165.9,122.44,56.84,433.22,188.31,521.41,114.47,76.8,278.32-104.39,389.91-28.28,111.45,76.01,34.55,315.75,143.04,392.34,59.31,41.87,172.74,34.06,393.5-106.01"/><path class="cls-3" d="M-91.75,50.4C91.27-16.42,253.85-39.35,349.15,31.23c163.19,120.87,39.64,449.73,169.32,536.3,112.92,75.38,286.66-120.51,396.68-45.73,109.88,74.69,21.91,328.07,128.77,403.48,58.42,41.23,173.8,28.36,403.55-126.99"/><path class="cls-1" d="M-61.31,36.02C120.24-33.51,280.94-58.96,373.81,9.93c159.03,117.97,31.98,447.91,158.51,532.2,110.17,73.4,284.61-124.73,391.94-51.88,107.19,72.75,16.42,326.85,120.61,400.38,56.96,40.2,170.96,25.53,400-133.04"/><path class="cls-2" d="M-126.7,91.66C52.68,28.96,212.53,8.79,307.36,78.94c162.39,120.13,45.14,439.28,174.07,525.49,112.26,75.07,280.75-113.68,390.15-39.23,109.26,74.35,26.03,320.35,132.32,395.37,58.11,41.02,171.59,30.02,395.81-118.42"/><path class="cls-3" d="M-95.45,47.78C87.57-19.04,250.15-41.97,345.45,28.61c163.19,120.87,39.64,449.73,169.32,536.3,112.92,75.38,286.66-120.51,396.68-45.73,109.88,74.69,21.91,328.07,128.77,403.48,58.42,41.23,173.8,28.36,403.55-126.99"/><path class="cls-3" d="M-100.12,54.41C82.9-12.41,245.48-35.34,340.77,35.24c163.19,120.87,39.64,449.73,169.32,536.3,112.92,75.38,286.66-120.51,396.68-45.73,109.88,74.69,21.91,328.07,128.77,403.48,58.42,41.23,173.8,28.36,403.55-126.99"/><path class="cls-1" d="M-64.76,40.87C116.79-28.66,277.49-54.11,370.36,14.78c159.03,117.97,31.98,447.91,158.51,532.2,110.17,73.4,284.61-124.73,391.94-51.88,107.19,72.75,16.42,326.85,120.61,400.38,56.96,40.2,170.96,25.53,400-133.04"/><path class="cls-2" d="M-142.98,93.6C36.41,30.9,196.25,10.73,291.08,80.88c162.39,120.13,45.14,439.28,174.07,525.49,112.26,75.07,280.75-113.68,390.15-39.23,109.26,74.35,26.03,320.35,132.32,395.37,58.11,41.02,171.59,30.02,395.81-118.42"/><path class="cls-1" d="M65.56-256.99c224.11-125.24,416.87-189.07,515.29-117.09,168.54,123.25-31.93,577.2,103.65,662.81,118.06,74.54,353.76-216.8,468.56-142.44,114.65,74.27-31.42,422.53,79.58,498.37,60.69,41.47,196.9,.59,490.62-249.67"/><path class="cls-3" d="M114.56-281.46c232.2-140.06,430.13-214.69,526.88-143.54,165.68,121.84-56.11,604.36,77.73,688.21,116.54,73.02,367.33-241.06,480.57-168.09,113.1,72.88-49.23,442.73,60.12,517.41,59.78,40.83,199.46-7.48,507.34-281.03"/><path class="cls-1" d="M153.92-309.22c231.09-143.39,427.36-220.95,521.63-151.47,161.42,118.98-64.77,603.91,65.86,685.49,113.74,71.03,365.87-246.28,476.36-175.25,110.35,70.95-55.45,442.53,51.17,515.33,58.29,39.8,196.74-10.59,504.52-288.36"/><path class="cls-2" d="M63.67-215.73c226.95-133.47,421-203.59,517.31-132.91,164.91,121.03-47.19,588.61,85.84,672.18,115.83,72.77,358.76-230.15,471.34-157.48,112.43,72.58-42.57,431.09,66.19,505.37,59.46,40.62,196.47-4.62,496.21-267.26"/><path class="cls-3" d="M110.77-284.06c232.2-140.06,430.13-214.69,526.88-143.54,165.68,121.84-56.11,604.36,77.73,688.21,116.54,73.02,367.33-241.06,480.57-168.09,113.1,72.88-49.23,442.73,60.12,517.41,59.78,40.83,199.46-7.48,507.34-281.03"/><path class="cls-3" d="M103.72-273.75c232.2-140.06,430.13-214.69,526.88-143.54,165.68,121.84-56.11,604.36,77.73,688.21,116.54,73.02,367.33-241.06,480.57-168.09,113.1,72.88-49.23,442.73,60.12,517.41,59.78,40.83,199.46-7.48,507.34-281.03"/><path class="cls-1" d="M148.72-301.67c231.09-143.39,427.36-220.95,521.63-151.47,161.42,118.98-64.77,603.91,65.86,685.49,113.74,71.03,365.87-246.28,476.36-175.25,110.35,70.95-55.45,442.53,51.17,515.33,58.29,39.8,196.74-10.59,504.52-288.36"/><path class="cls-2" d="M43.94-208.76c226.95-133.47,421-203.59,517.31-132.91,164.91,121.03-47.19,588.61,85.84,672.18,115.83,72.77,358.76-230.15,471.34-157.48,112.43,72.58-42.57,431.09,66.19,505.37,59.46,40.62,196.47-4.62,496.21-267.26"/><path class="cls-1" d="M-412.73,494.62C-188.63,369.39,4.13,305.55,102.56,377.53c168.54,123.25-31.93,577.2,103.65,662.81,118.06,74.54,353.76-216.8,468.56-142.44,114.65,74.27-31.42,422.53,79.58,498.37,60.69,41.47,196.9,.59,490.62-249.67"/><path class="cls-3" d="M-363.74,470.16C-131.54,330.09,66.38,255.47,163.14,326.62c165.68,121.84-56.11,604.36,77.73,688.21,116.54,73.02,367.33-241.06,480.57-168.09,113.1,72.88-49.23,442.73,60.12,517.41,59.78,40.83,199.46-7.48,507.34-281.03"/><path class="cls-1" d="M-324.38,442.4C-93.29,299.01,102.98,221.45,197.24,290.93c161.42,118.98-64.77,603.91,65.86,685.49,113.74,71.03,365.87-246.28,476.36-175.25,110.35,70.95-55.45,442.53,51.17,515.33,58.29,39.8,196.74-10.59,504.52-288.36"/><path class="cls-2" d="M-414.62,535.88C-187.67,402.41,6.38,332.29,102.68,402.97c164.91,121.03-47.19,588.61,85.84,672.18,115.83,72.77,358.76-230.15,471.34-157.48,112.43,72.58-42.57,431.09,66.19,505.37,59.46,40.62,196.47-4.62,496.21-267.26"/><path class="cls-3" d="M-367.53,467.56C-135.32,327.49,62.6,252.87,159.35,324.02c165.68,121.84-56.11,604.36,77.73,688.21,116.54,73.02,367.33-241.06,480.57-168.09,113.1,72.88-49.23,442.73,60.12,517.41,59.78,40.83,199.46-7.48,507.34-281.03"/><path class="cls-3" d="M-374.58,477.87C-142.38,337.8,55.54,263.18,152.3,334.33c165.68,121.84-56.11,604.36,77.73,688.21,116.54,73.02,367.33-241.06,480.57-168.09,113.1,72.88-49.23,442.73,60.12,517.41,59.78,40.83,199.46-7.48,507.34-281.03"/><path class="cls-1" d="M-329.58,449.95C-98.49,306.56,97.78,229,192.04,298.48c161.42,118.98-64.77,603.91,65.86,685.49,113.74,71.03,365.87-246.28,476.36-175.25,110.35,70.95-55.45,442.53,51.17,515.33,58.29,39.8,196.74-10.59,504.52-288.36"/><path class="cls-2" d="M-434.36,542.86C-207.4,409.38-13.35,339.27,82.95,409.95c164.91,121.03-47.19,588.61,85.84,672.18,115.83,72.77,358.76-230.15,471.34-157.48,112.43,72.58-42.57,431.09,66.19,505.37,59.46,40.62,196.47-4.62,496.21-267.26"/></svg>