<?xml version="1.0" encoding="UTF-8"?><svg id="Layer_1" xmlns="http://www.w3.org/2000/svg" width="1366" height="1000" viewBox="0 0 1366 1000"><defs><style>.cls-1{stroke:#ededbb;}.cls-1,.cls-2,.cls-3{fill:none;stroke-miterlimit:10;stroke-width:4px;}.cls-2{stroke:#b8dce8;}.cls-3{stroke:#e1b6d2;}</style></defs><path class="cls-1" d="M-225.25,157.35C-45.69,80.97,119.78,49.15,230.56,113.64c189.7,110.42,115.03,442.73,264.23,521.1,129.91,68.24,278.63-135.33,405.43-67.51,126.63,67.72,76.63,323.35,200.23,391.97,67.58,37.51,185.57,18.3,399.25-148.3"/><path class="cls-3" d="M-185.26,142.9C-1.81,55.81,165.81,16.12,274.81,79.82c186.65,109.07,99.09,461.5,246.21,538.36,128.1,66.93,285.31-152.83,410.29-86.23,124.82,66.51,64.94,337.34,186.68,404.9,66.56,36.94,185.95,12.29,407.11-171"/><path class="cls-1" d="M-155.18,125.04C26.39,35.27,191.72-6.82,297.96,55.36c181.92,106.48,90.83,460.37,234.34,535.18,124.97,65.14,282.63-156.99,404.53-92.14,121.75,64.77,59.03,336.62,177.73,402.49,64.9,36.01,182.61,9.65,402.61-176.91"/><path class="cls-2" d="M-216.66,189.03C-36.49,106.55,128.62,70,237.07,133.29c185.72,108.38,103.53,450.15,249.81,526.72,127.37,66.67,279.99-145.18,404.27-78.87,124.12,66.22,68.28,328.95,189.37,396.16,66.21,36.74,183.85,14.23,400.09-161.37"/><path class="cls-3" d="M-189.48,140.55C-6.03,53.46,161.59,13.78,270.59,77.47c186.65,109.07,99.09,461.5,246.21,538.36,128.1,66.93,285.31-152.83,410.29-86.23,124.82,66.51,64.94,337.34,186.68,404.9,66.56,36.94,185.95,12.29,407.11-171"/><path class="cls-3" d="M-193.53,147.87C-10.08,60.78,157.54,21.1,266.54,84.79c186.65,109.07,99.09,461.5,246.21,538.36,128.1,66.93,285.31-152.83,410.29-86.23,124.82,66.51,64.94,337.34,186.68,404.9,66.56,36.94,185.95,12.29,407.11-171"/><path class="cls-1" d="M-158.18,130.4C23.39,40.63,188.72-1.47,294.96,60.71c181.92,106.48,90.83,460.37,234.34,535.18,124.97,65.14,282.63-156.99,404.53-92.14,121.75,64.77,59.03,336.62,177.73,402.49,64.9,36.01,182.61,9.65,402.61-176.91"/><path class="cls-2" d="M-233.48,192.63C-53.32,110.15,111.79,73.6,220.25,136.89c185.72,108.38,103.53,450.15,249.81,526.72,127.37,66.67,279.99-145.18,404.27-78.87,124.12,66.22,68.28,328.95,189.37,396.16,66.21,36.74,183.85,14.23,400.09-161.37"/></svg>