<?xml version="1.0" encoding="UTF-8"?><svg id="Layer_1" xmlns="http://www.w3.org/2000/svg" width="1366" height="768" viewBox="0 0 1366 768"><defs><style>.cls-1{stroke:#ededbb;}.cls-1,.cls-2,.cls-3{fill:none;stroke-miterlimit:10;stroke-width:4px;}.cls-2{stroke:#b8dce8;}.cls-3{stroke:#e1b6d2;}</style></defs><path class="cls-1" d="M-40.5,529.74C57.35,325.16,162.82,181.38,267.41,184.67c179.11,5.64,257.51,439.45,395.02,434.04,119.74-4.71,145.19-336.96,262.53-340.15,117.19-3.19,182.81,325.73,298.19,325.53,63.08-.11,139.66-98.6,226.11-429.9"/><path class="cls-3" d="M-17.69,487.15C78.69,267.62,182.57,113.33,285.59,116.86c176.4,6.03,253.58,471.52,389.01,465.71,117.93-5.06,143.02-361.58,258.59-365.02,115.42-3.43,180.01,349.51,293.65,349.29,62.13-.12,137.55-105.81,222.72-461.32"/><path class="cls-1" d="M-3.3,446.99C90.68,225.58,191.97,69.97,292.41,73.52c171.99,6.08,247.23,475.55,379.28,469.69,114.98-5.11,139.45-364.68,252.14-368.14,112.54-3.46,175.51,352.49,286.31,352.27,60.58-.13,134.12-106.72,217.17-465.27"/><path class="cls-2" d="M-21.81,560.95C74.06,348.9,177.38,199.86,279.85,203.27c175.47,5.83,252.25,455.48,386.96,449.87,117.3-4.88,142.25-349.27,257.21-352.59,114.81-3.31,179.07,337.62,292.1,337.41,61.8-.12,136.82-102.21,221.53-445.62"/><path class="cls-3" d="M-21.63,487.15C74.76,267.62,178.63,113.33,281.65,116.85c176.4,6.03,253.58,471.52,389.01,465.71,117.93-5.06,143.02-361.58,258.59-365.02,115.42-3.43,180.01,349.51,293.65,349.29,62.13-.12,137.55-105.81,222.72-461.32"/><path class="cls-3" d="M-21.62,498.26C74.76,278.73,178.64,124.44,281.65,127.97c176.4,6.03,253.58,471.52,389.01,465.71,117.93-5.06,143.02-361.58,258.59-365.02,115.42-3.43,180.01,349.51,293.65,349.29,62.13-.12,137.55-105.81,222.72-461.32"/><path class="cls-1" d="M-3.32,455.15C90.66,233.74,191.95,78.13,292.39,81.68c171.99,6.08,247.23,475.55,379.28,469.69,114.98-5.11,139.45-364.68,252.14-368.14,112.54-3.46,175.51,352.49,286.31,352.27,60.58-.13,134.12-106.72,217.17-465.27"/><path class="cls-2" d="M-32.39,576C63.48,363.94,166.8,214.91,269.27,218.31c175.47,5.83,252.25,455.48,386.96,449.87,117.3-4.88,142.25-349.27,257.21-352.59,114.81-3.31,179.07,337.62,292.1,337.41,61.8-.12,136.82-102.21,221.53-445.62"/></svg>